<?xml version="1.0" encoding="UTF-8" standalone="no"?>
<!-- Created with Inkscape (http://www.inkscape.org/) -->

<svg
   xmlns:dc="http://purl.org/dc/elements/1.1/"
   xmlns:cc="http://creativecommons.org/ns#"
   xmlns:rdf="http://www.w3.org/1999/02/22-rdf-syntax-ns#"
   xmlns:svg="http://www.w3.org/2000/svg"
   xmlns="http://www.w3.org/2000/svg"
   xmlns:sodipodi="http://sodipodi.sourceforge.net/DTD/sodipodi-0.dtd"
   xmlns:inkscape="http://www.inkscape.org/namespaces/inkscape"
   width="640"
   height="240"
   viewBox="0 0 640.00001 240"
   id="svg2"
   version="1.1"
   inkscape:version="0.91 r13725"
   sodipodi:docname="iterations.svg">
  <defs
     id="defs4">
    <marker
       inkscape:stockid="Arrow1Mend"
       orient="auto"
       refY="0.0"
       refX="0.0"
       id="Arrow1Mend"
       style="overflow:visible;"
       inkscape:isstock="true">
      <path
         id="path4151"
         d="M 0.0,0.0 L 5.0,-5.0 L -12.5,0.0 L 5.0,5.0 L 0.0,0.0 z "
         style="fill-rule:evenodd;stroke:#000000;stroke-width:1pt;stroke-opacity:1;fill:#000000;fill-opacity:1"
         transform="scale(0.4) rotate(180) translate(10,0)" />
    </marker>
    <marker
       inkscape:stockid="Arrow1Lend"
       orient="auto"
       refY="0.0"
       refX="0.0"
       id="Arrow1Lend"
       style="overflow:visible;"
       inkscape:isstock="true">
      <path
         id="path4145"
         d="M 0.0,0.0 L 5.0,-5.0 L -12.5,0.0 L 5.0,5.0 L 0.0,0.0 z "
         style="fill-rule:evenodd;stroke:#000000;stroke-width:1pt;stroke-opacity:1;fill:#000000;fill-opacity:1"
         transform="scale(0.8) rotate(180) translate(12.5,0)" />
    </marker>
  </defs>
  <sodipodi:namedview
     id="base"
     pagecolor="#ffffff"
     bordercolor="#666666"
     borderopacity="1.0"
     inkscape:pageopacity="0.0"
     inkscape:pageshadow="2"
     inkscape:zoom="0.49166667"
     inkscape:cx="612.00139"
     inkscape:cy="172.6842"
     inkscape:document-units="px"
     inkscape:current-layer="layer1"
     showgrid="false"
     units="px"
     inkscape:window-width="1746"
     inkscape:window-height="452"
     inkscape:window-x="1464"
     inkscape:window-y="552"
     inkscape:window-maximized="0" />
  <metadata
     id="metadata7">
    <rdf:RDF>
      <cc:Work
         rdf:about="">
        <dc:format>image/svg+xml</dc:format>
        <dc:type
           rdf:resource="http://purl.org/dc/dcmitype/StillImage" />
        <dc:title></dc:title>
      </cc:Work>
    </rdf:RDF>
  </metadata>
  <g
     inkscape:label="Ebene 1"
     inkscape:groupmode="layer"
     id="layer1"
     transform="translate(0,-812.36216)">
    <g
       id="g6060">
      <path
         sodipodi:nodetypes="cssssssccsssssssc"
         inkscape:connector-curvature="0"
         id="path4136"
         d="m 0,1052.3622 c 0,0 76.61017,-40 100,-40 23.38983,0 25.50371,20.2525 0,20 -25.677967,-0.2543 -20.33899,-20.7628 0,-20 20.35008,0.7631 84.45849,-40.00004 100,-40.00004 16.2606,0 19.09533,20 0,20 -13.18324,0 -14.23728,-20 0,-20 7.11865,0 84.01266,-40 100,-40 16.61991,0 17.9481,20 0,20 -17.0339,0 -18.41738,-19.88491 0,-20 19.74326,-0.12337 77.62712,-38.98305 100,-40 22.37288,-1.01695 25.42373,18.98305 0,20 -25.42373,1.01695 -12.20339,-20 0,-20 12.20339,0 79.66102,-40 100,-40 20.33898,0 25.42373,22.0339 0,20 -25.42373,-2.0339 -10.16949,-20 0,-20 10.16949,0 128.68644,-35.80508 128.68644,-35.80508"
         style="fill:none;fill-rule:evenodd;stroke:#000000;stroke-width:1px;stroke-linecap:butt;stroke-linejoin:miter;stroke-opacity:1" />
      <path
         inkscape:connector-curvature="0"
         id="path5971"
         d="m 97.391974,1032.3174 8.629096,-2.7415 -2.20222,2.5168 2.24716,2.5168 z"
         style="fill:#000000;fill-opacity:1;fill-rule:evenodd;stroke:#000000;stroke-width:1px;stroke-linecap:butt;stroke-linejoin:round;stroke-opacity:1" />
      <path
         inkscape:connector-curvature="0"
         id="path5971-4"
         d="m 197.66603,992.05604 8.6291,-2.7415 -2.20222,2.5168 2.24716,2.5168 z"
         style="fill:#000000;fill-opacity:1;fill-rule:evenodd;stroke:#000000;stroke-width:1px;stroke-linecap:butt;stroke-linejoin:round;stroke-opacity:1" />
      <path
         inkscape:connector-curvature="0"
         id="path5971-3"
         d="m 297.19479,952.16639 8.6291,-2.7415 -2.20222,2.5168 2.24716,2.5168 z"
         style="fill:#000000;fill-opacity:1;fill-rule:evenodd;stroke:#000000;stroke-width:1px;stroke-linecap:butt;stroke-linejoin:round;stroke-opacity:1" />
      <path
         inkscape:connector-curvature="0"
         id="path5971-0"
         d="m 396.20076,912.36211 8.62909,-2.7415 -2.20222,2.5168 2.24716,2.5168 z"
         style="fill:#000000;fill-opacity:1;fill-rule:evenodd;stroke:#000000;stroke-width:1px;stroke-linecap:butt;stroke-linejoin:round;stroke-opacity:1" />
      <path
         inkscape:connector-curvature="0"
         id="path5971-37"
         d="m 501.16258,872.43258 8.62909,-2.7415 -2.20222,2.5168 2.24716,2.5168 z"
         style="fill:#000000;fill-opacity:1;fill-rule:evenodd;stroke:#000000;stroke-width:1px;stroke-linecap:butt;stroke-linejoin:round;stroke-opacity:1" />
      <path
         inkscape:connector-curvature="0"
         id="path5971-4-3"
         d="m 185.88694,976.46664 -6.97255,5.77587 1.09839,-3.15874 -3.02666,-1.49108 z"
         style="fill:#000000;fill-opacity:1;fill-rule:evenodd;stroke:#000000;stroke-width:1px;stroke-linecap:butt;stroke-linejoin:round;stroke-opacity:1" />
      <path
         inkscape:connector-curvature="0"
         id="path5971-4-3-5"
         d="m 57.663188,1025.0251 -6.97255,5.7759 1.09839,-3.1587 -3.02666,-1.4911 z"
         style="fill:#000000;fill-opacity:1;fill-rule:evenodd;stroke:#000000;stroke-width:1px;stroke-linecap:butt;stroke-linejoin:round;stroke-opacity:1" />
      <path
         inkscape:connector-curvature="0"
         id="path5971-4-3-6"
         d="m 327.05289,923.54334 -6.97255,5.77587 1.09839,-3.15874 -3.02666,-1.49108 z"
         style="fill:#000000;fill-opacity:1;fill-rule:evenodd;stroke:#000000;stroke-width:1px;stroke-linecap:butt;stroke-linejoin:round;stroke-opacity:1" />
      <path
         inkscape:connector-curvature="0"
         id="path5971-4-3-53"
         d="m 634.43327,813.8627 -6.97255,5.77587 1.09839,-3.15874 -3.02666,-1.49108 z"
         style="fill:#000000;fill-opacity:1;fill-rule:evenodd;stroke:#000000;stroke-width:1px;stroke-linecap:butt;stroke-linejoin:round;stroke-opacity:1" />
    </g>
  </g>
</svg>
