<?xml version="1.0" encoding="UTF-8" standalone="no"?>
<!-- Created with Inkscape (http://www.inkscape.org/) -->

<svg
   xmlns:dc="http://purl.org/dc/elements/1.1/"
   xmlns:cc="http://creativecommons.org/ns#"
   xmlns:rdf="http://www.w3.org/1999/02/22-rdf-syntax-ns#"
   xmlns:svg="http://www.w3.org/2000/svg"
   xmlns="http://www.w3.org/2000/svg"
   xmlns:sodipodi="http://sodipodi.sourceforge.net/DTD/sodipodi-0.dtd"
   xmlns:inkscape="http://www.inkscape.org/namespaces/inkscape"
   width="640"
   height="240"
   viewBox="0 0 640.00001 240"
   id="svg5134"
   version="1.1"
   inkscape:version="0.91 r13725"
   sodipodi:docname="ElectricalWireNoise.svg"
   inkscape:export-filename="C:\Users\christian.prior\Desktop\helotism\helotism\technology\logical\images\ElectricalWireNoise.png"
   inkscape:export-xdpi="90"
   inkscape:export-ydpi="90">
  <defs
     id="defs5136" />
  <sodipodi:namedview
     id="base"
     pagecolor="#ffffff"
     bordercolor="#666666"
     borderopacity="1.0"
     inkscape:pageopacity="0.0"
     inkscape:pageshadow="2"
     inkscape:zoom="0.83637474"
     inkscape:cx="-96.924211"
     inkscape:cy="91.043598"
     inkscape:document-units="px"
     inkscape:current-layer="layer1"
     showgrid="false"
     units="px"
     inkscape:window-width="1169"
     inkscape:window-height="789"
     inkscape:window-x="1930"
     inkscape:window-y="152"
     inkscape:window-maximized="0" />
  <metadata
     id="metadata5139">
    <rdf:RDF>
      <cc:Work
         rdf:about="">
        <dc:format>image/svg+xml</dc:format>
        <dc:type
           rdf:resource="http://purl.org/dc/dcmitype/StillImage" />
        <dc:title />
      </cc:Work>
    </rdf:RDF>
  </metadata>
  <g
     inkscape:label="Ebene 1"
     inkscape:groupmode="layer"
     id="layer1"
     transform="translate(0,-812.36216)">
    <path
       style="fill:none;fill-rule:evenodd;stroke:#000000;stroke-width:1px;stroke-linecap:butt;stroke-linejoin:miter;stroke-opacity:1"
       d="m 131.04359,874.81923 c 3.38177,59.18098 -5.9181,57.4901 -1.69089,61.71731 4.22722,4.22721 52.41744,-2.53633 74.39894,-1.69089"
       id="path5682"
       inkscape:connector-curvature="0" />
    <path
       style="fill:none;fill-rule:evenodd;stroke:#000000;stroke-width:1px;stroke-linecap:butt;stroke-linejoin:miter;stroke-opacity:1"
       d="m 128.1,936.2884 c 3.288,0 10.46182,-37.66255 15.54327,-37.66255 5.08146,0 5.08146,37.36364 10.46182,37.36364 5.38037,0 9.864,-36.76582 15.54327,-36.46691 5.67928,0.29891 8.07054,34.07564 14.04872,34.37454 5.97818,0.29891 4.18473,-36.4669 10.16291,-36.4669 5.97818,0 7.17382,15.24436 8.36946,20.32581"
       id="path5684"
       inkscape:connector-curvature="0" />
    <path
       style="fill:none;fill-rule:evenodd;stroke:#000000;stroke-width:1px;stroke-linecap:butt;stroke-linejoin:miter;stroke-opacity:1"
       d="m 131.73307,946.63938 c 3.38177,59.18092 -5.9181,57.49002 -1.69089,61.71732 4.22722,4.2272 52.41744,-2.5364 74.39894,-1.6909"
       id="path5682-5"
       inkscape:connector-curvature="0" />
    <path
       style="fill:none;fill-rule:evenodd;stroke:#000000;stroke-width:1px;stroke-linecap:butt;stroke-linejoin:miter;stroke-opacity:1"
       d="m 130.46491,996.94324 c 17.33157,0 44.80846,-0.8455 74.39893,-2.9591"
       id="path5719-2"
       inkscape:connector-curvature="0"
       sodipodi:nodetypes="cc" />
    <path
       style="fill:none;fill-rule:evenodd;stroke:#000000;stroke-width:1px;stroke-linecap:butt;stroke-linejoin:miter;stroke-opacity:1"
       d="m 210.00109,987.10294 14.34763,-2.9891 0,-23.91272 11.35855,-1.19564 c 0,0 70.54254,1.19564 86.68363,0.59782 16.14109,-0.59782 91.45321,1.45107 105.40302,1.87379"
       id="path5752"
       inkscape:connector-curvature="0" />
    <path
       style="fill:none;fill-rule:evenodd;stroke:#000000;stroke-width:1px;stroke-linecap:butt;stroke-linejoin:miter;stroke-opacity:1"
       d="m 224.34872,959.6033 -1.79345,-37.66254 -13.74982,-0.59782"
       id="path5754"
       inkscape:connector-curvature="0" />
    <path
       style="fill:none;fill-rule:evenodd;stroke:#e62a2a;stroke-width:1px;stroke-linecap:round;stroke-linejoin:round;stroke-opacity:1"
       d="m 447.94352,982.24404 -3.288,-6.4265 6.27709,4.3342 -4.932,-6.2771 7.17381,1.3451 -6.8749,-4.6331 8.22,1.04618 -6.87491,-4.33418 7.92109,0.89673 -7.17382,-4.18473 8.07054,1.49454 -6.8749,-4.63309 7.47272,1.34509 -6.42654,-5.08145 7.80751,1.06527 -7.08058,-4.12153 7.5033,1.58521 -6.12946,-5.07266 7.82034,1.69089 -6.34081,-5.28402 6.9749,3.06473 -5.60106,-6.12946 6.12946,5.60106 -3.91017,-9.19419 4.43857,8.66579 0.10568,-10.88508 0.5284,5.49538 3.38177,-4.22721 -2.64201,6.12946 4.12154,-2.21929 -5.49538,7.18626 7.5033,-0.31704 -6.9749,1.90225 7.39762,2.1136 -7.18626,1.37385 7.5033,1.5852 -6.9749,2.11361 7.29195,1.16248 -6.76354,3.69881 6.9749,-0.84544 -6.34082,4.75561 7.08058,-2.43064 -5.81242,8.13741 6.34082,-4.33292 -4.43857,9.93392 5.28401,-8.4544 -0.21136,11.8362 0.63408,-11.73052 5.3897,7.18622 -5.07266,-8.66574 7.71467,1.0568 -6.76354,-4.43857 8.45442,-0.84544 -6.76354,-5.07266 7.71467,0.5284 -6.55218,-4.33289 7.92602,0.31704 -6.76354,-5.07266 7.82034,1.05681 -6.4465,-5.17834 7.18627,2.85337 -4.64994,-8.13738 5.07266,6.9749 -1.69089,-10.03963 2.43065,9.93395 2.43065,-9.19419 -1.26817,7.71466 4.43858,-4.33289 -5.70674,7.08058 7.92602,-1.69088 -6.9749,4.01585 8.13739,1.0568 -6.97491,4.01585 7.92603,-0.31704 -6.76354,4.01585 7.71466,-0.21136 -6.86922,4.8613 7.39762,-1.69089 -6.4465,5.70674 7.60899,-2.74769 -5.60106,7.60895 5.9181,-6.65783 -3.69881,10.46233 4.01585,-9.19416 1.69088,10.77936 -1.26816,-10.88504 6.86922,5.70674 -6.86922,-7.29195 7.92602,0.52841 -7.29194,-4.96698 7.82035,-0.84544 -7.08059,-4.22721 7.82035,-0.52841 -7.39762,-4.12153 8.13738,-0.73976 -7.60898,-3.69881 8.13738,0 -7.18626,-5.70674 7.60898,4.01585 -4.96697,-8.77146 5.07265,7.39762 -1.47952,-9.61691 2.1136,9.61691 1.16249,-8.77147 -0.30521,5.82353 4.55836,-2.31655 -5.45509,5.754 7.17382,-1.94291 -6.72546,3.73636 8.36946,0.97146 -7.02437,3.51218 7.77164,0.97146 -6.72545,4.48363 7.6969,0.14946 -7.398,2.98909"
       id="path5800"
       inkscape:connector-curvature="0" />
    <path
       style="fill:none;fill-rule:evenodd;stroke:#000000;stroke-width:1px;stroke-linecap:butt;stroke-linejoin:miter;stroke-opacity:1"
       d="m 448.2442,928.41373 c 3.38177,59.18101 -5.9181,57.49011 -1.69089,61.71731 4.22721,4.2272 52.41744,-2.5363 74.39894,-1.6909"
       id="path5682-8-0"
       inkscape:connector-curvature="0" />
    <path
       style="fill:none;fill-rule:evenodd;stroke:#000000;stroke-width:1px;stroke-linecap:butt;stroke-linejoin:miter;stroke-opacity:1"
       d="m 446.79516,979.42114 c 3.288,0 10.46182,-37.66259 15.54327,-37.66259 5.08145,0 5.08145,37.36359 10.46182,37.36359 5.38036,0 9.864,-36.76577 15.54327,-36.46686 5.67927,0.29891 8.07054,34.07566 14.04872,34.37456 5.97818,0.2989 4.18473,-36.46692 10.16291,-36.46692 5.97818,0 7.17382,15.24436 8.36946,20.32581"
       id="path5684-0-7"
       inkscape:connector-curvature="0" />
    <path
       style="fill:none;fill-rule:evenodd;stroke:#e62a2a;stroke-width:1px;stroke-linecap:butt;stroke-linejoin:miter;stroke-opacity:1"
       d="m 286.39366,942.56032 3.17041,-10.14531 2.642,9.93395 3.48746,-9.72259 2.85336,9.93395 4.96698,-10.03963 2.43065,10.03963 2.642,-10.03963 4.01586,10.25099 3.27609,-10.14531 2.642,9.82827 4.01586,-9.93395 3.27609,10.03963 3.59313,-10.35667 3.06473,10.25099 3.48745,-10.25099 2.53632,10.14531 4.43858,-9.93395 3.17041,10.03963 3.80449,-9.93395 2.95905,9.82827 3.27609,-9.72259 3.38177,9.72259 3.91017,-9.82827 3.91017,9.72259 5.28402,-9.61691 3.17041,9.61691 2.642,-5.28401"
       id="path5822"
       inkscape:connector-curvature="0" />
    <ellipse
       style="opacity:1;fill:#ffffff;fill-opacity:1;stroke:#000000;stroke-width:1;stroke-linecap:round;stroke-linejoin:round;stroke-miterlimit:4;stroke-dasharray:none;stroke-dashoffset:0;stroke-opacity:1"
       id="path5824"
       cx="224.274"
       cy="960.12646"
       rx="2.1670909"
       ry="1.5692726" />
    <path
       style="fill:none;fill-rule:evenodd;stroke:#000000;stroke-width:1px;stroke-linecap:butt;stroke-linejoin:miter;stroke-opacity:1"
       d="m 443.43161,939.37453 5.23091,0.14945"
       id="path5843"
       inkscape:connector-curvature="0"
       sodipodi:nodetypes="cc" />
    <path
       style="fill:none;fill-rule:evenodd;stroke:#000000;stroke-width:1px;stroke-linecap:butt;stroke-linejoin:miter;stroke-opacity:1"
       d="m 126.81819,957.07054 5.23091,0.14945"
       id="path5843-0"
       inkscape:connector-curvature="0"
       sodipodi:nodetypes="cc" />
    <path
       style="fill:none;fill-rule:evenodd;stroke:#000000;stroke-width:1px;stroke-linecap:butt;stroke-linejoin:miter;stroke-opacity:1"
       d="m 126.18153,885.457 5.23091,0.14945"
       id="path5843-3"
       inkscape:connector-curvature="0"
       sodipodi:nodetypes="cc" />
  </g>
</svg>
