<?xml version="1.0" encoding="UTF-8" standalone="no"?>
<!-- Created with Inkscape (http://www.inkscape.org/) -->

<svg
   xmlns:dc="http://purl.org/dc/elements/1.1/"
   xmlns:cc="http://creativecommons.org/ns#"
   xmlns:rdf="http://www.w3.org/1999/02/22-rdf-syntax-ns#"
   xmlns:svg="http://www.w3.org/2000/svg"
   xmlns="http://www.w3.org/2000/svg"
   xmlns:sodipodi="http://sodipodi.sourceforge.net/DTD/sodipodi-0.dtd"
   xmlns:inkscape="http://www.inkscape.org/namespaces/inkscape"
   width="640"
   height="240"
   viewBox="0 0 640.00001 240"
   id="svg6182"
   version="1.1"
   inkscape:version="0.91 r13725"
   sodipodi:docname="ElectricalDiscretization.svg"
   inkscape:export-filename="C:\Users\christian.prior\Desktop\helotism\helotism\technology\logical\images\ElectricalDiscretization.png"
   inkscape:export-xdpi="90"
   inkscape:export-ydpi="90">
  <defs
     id="defs6184" />
  <sodipodi:namedview
     id="base"
     pagecolor="#ffffff"
     bordercolor="#666666"
     borderopacity="1.0"
     inkscape:pageopacity="0.0"
     inkscape:pageshadow="2"
     inkscape:zoom="0.75185338"
     inkscape:cx="531.11753"
     inkscape:cy="19.191607"
     inkscape:document-units="px"
     inkscape:current-layer="layer2"
     showgrid="false"
     units="px"
     inkscape:window-width="795"
     inkscape:window-height="436"
     inkscape:window-x="-32000"
     inkscape:window-y="-32000"
     inkscape:window-maximized="0" />
  <metadata
     id="metadata6187">
    <rdf:RDF>
      <cc:Work
         rdf:about="">
        <dc:format>image/svg+xml</dc:format>
        <dc:type
           rdf:resource="http://purl.org/dc/dcmitype/StillImage" />
        <dc:title />
      </cc:Work>
    </rdf:RDF>
  </metadata>
  <g
     inkscape:groupmode="layer"
     id="layer2"
     inkscape:label="bg">
    <rect
       style="fill:#fdf6e3;fill-opacity:1;fill-rule:evenodd;stroke:none;stroke-width:1px;stroke-linecap:butt;stroke-linejoin:miter;stroke-opacity:1"
       id="rect4152"
       width="640"
       height="240"
       x="0"
       y="-3.5527137e-015" />
  </g>
  <g
     inkscape:label="Ebene 1"
     inkscape:groupmode="layer"
     id="layer1"
     transform="translate(0,-812.36216)">
    <rect
       style="opacity:0.18000004;fill:#000000;fill-opacity:1;fill-rule:evenodd;stroke:none;stroke-width:0.87641025px;stroke-linecap:butt;stroke-linejoin:miter;stroke-opacity:1"
       id="rect6017-0-1-7"
       width="77.949043"
       height="19.12359"
       x="445.68112"
       y="976.51062" />
    <path
       style="fill:none;fill-rule:evenodd;stroke:#000000;stroke-width:1px;stroke-linecap:butt;stroke-linejoin:miter;stroke-opacity:1"
       d="m 115.56942,934.32486 c 3.38177,59.18095 -5.9181,57.49005 -1.69089,61.71735"
       id="path5682-5-2"
       inkscape:connector-curvature="0"
       sodipodi:nodetypes="cc" />
    <path
       style="fill:none;fill-rule:evenodd;stroke:#000000;stroke-width:1px;stroke-linecap:butt;stroke-linejoin:miter;stroke-opacity:1"
       d="m 110.65454,944.75605 5.23091,0.14945"
       id="path5843-0-6"
       inkscape:connector-curvature="0"
       sodipodi:nodetypes="cc" />
    <path
       style="fill:none;fill-rule:evenodd;stroke:#000000;stroke-width:1px;stroke-linecap:butt;stroke-linejoin:miter;stroke-opacity:1"
       d="m 117.09404,995.67429 c 14.58388,-0.63409 17.06635,0.63408 17.06635,-1.26817 0,-1.90224 -1.45243,-45.64549 0.93884,-45.94439 2.39128,-0.29891 29.29309,-0.89673 30.78764,0.29891 1.49454,1.19563 2.69018,43.32 4.48363,44.21672 1.79346,0.89673 20.62473,0.29891 20.62473,0.29891"
       id="path5922"
       inkscape:connector-curvature="0"
       sodipodi:nodetypes="cssssc" />
    <path
       style="fill:none;fill-rule:evenodd;stroke:#000000;stroke-width:1px;stroke-linecap:butt;stroke-linejoin:miter;stroke-opacity:1"
       d="m 314.01396,931.87709 c 3.38177,59.18096 -5.9181,57.49006 -1.69089,61.71736"
       id="path5682-5-2-5"
       inkscape:connector-curvature="0"
       sodipodi:nodetypes="cc" />
    <path
       style="fill:none;fill-rule:evenodd;stroke:#000000;stroke-width:1px;stroke-linecap:butt;stroke-linejoin:miter;stroke-opacity:1"
       d="m 309.09908,942.30829 5.23091,0.14945"
       id="path5843-0-6-4"
       inkscape:connector-curvature="0"
       sodipodi:nodetypes="cc" />
    <path
       style="fill:none;fill-rule:evenodd;stroke:#000000;stroke-width:1px;stroke-linecap:butt;stroke-linejoin:miter;stroke-opacity:1"
       d="m 315.53858,993.22653 c 14.58388,-0.63409 17.06635,0.63408 17.06635,-1.26817 0,-1.90224 -1.45243,-45.6455 0.93884,-45.9444 2.39128,-0.29891 29.29309,-0.89673 30.78764,0.29891 1.49454,1.19563 2.69018,43.32001 4.48363,44.21673 1.79346,0.89673 20.62473,0.29891 20.62473,0.29891"
       id="path5922-5"
       inkscape:connector-curvature="0"
       sodipodi:nodetypes="cssssc" />
    <path
       style="fill:none;fill-rule:evenodd;stroke:#e62a2a;stroke-width:1px;stroke-linecap:butt;stroke-linejoin:miter;stroke-opacity:1"
       d="m 314.92604,997.96489 2.642,-10.03963 4.01586,10.25099 3.27609,-10.14531 2.642,9.82827 4.01586,-9.93395 1.63209,10.48799"
       id="path5822-0"
       inkscape:connector-curvature="0"
       sodipodi:nodetypes="ccccccc" />
    <path
       style="fill:none;fill-rule:evenodd;stroke:#e62a2a;stroke-width:1px;stroke-linecap:butt;stroke-linejoin:miter;stroke-opacity:1"
       d="m 331.78892,952.16751 3.27609,-10.14531 2.642,9.82827 4.01586,-9.93395 3.27609,10.03963 3.59313,-10.35668 3.06473,10.251 3.48745,-10.251 2.53632,10.14532 4.43858,-9.93396 3.17041,10.03964"
       id="path5822-6"
       inkscape:connector-curvature="0"
       sodipodi:nodetypes="ccccccccccc" />
    <path
       style="fill:none;fill-rule:evenodd;stroke:#e62a2a;stroke-width:1px;stroke-linecap:butt;stroke-linejoin:miter;stroke-opacity:1"
       d="m 367.07263,996.10346 4.01586,-9.93395 3.27609,10.03963 3.59313,-10.35667 3.06473,10.25099 3.48745,-10.25099 2.53632,10.14531"
       id="path5822-9"
       inkscape:connector-curvature="0"
       sodipodi:nodetypes="ccccccc" />
    <path
       style="fill:none;fill-rule:evenodd;stroke:#e62a2a;stroke-width:1px;stroke-linecap:butt;stroke-linejoin:miter;stroke-opacity:1"
       d="m 186.7358,969.64258 3.17041,-10.14531 2.642,9.93395 3.48746,-9.72259 2.85336,9.93395 4.96698,-10.03963 2.43065,10.03963 2.642,-10.03963 4.01586,10.25099 3.27609,-10.14531 2.642,9.82827 4.01586,-9.93395 3.27609,10.03963 3.59313,-10.35667 3.06473,10.25099 3.48745,-10.25099 2.53632,10.14531 4.43858,-9.93395 3.17041,10.03963 3.80449,-9.93395 2.95905,9.82827 3.27609,-9.72259 3.38177,9.72259 3.91017,-9.82827 3.91017,9.72259 5.28402,-9.61691 3.17041,9.61691 2.642,-5.28401"
       id="path5822-2"
       inkscape:connector-curvature="0" />
    <path
       style="fill:none;fill-rule:evenodd;stroke:#000000;stroke-width:1px;stroke-linecap:butt;stroke-linejoin:miter;stroke-opacity:1"
       d="m 448.20378,933.66143 c 3.38177,59.18097 -5.9181,57.49007 -1.69089,61.71737"
       id="path5682-5-2-5-2"
       inkscape:connector-curvature="0"
       sodipodi:nodetypes="cc" />
    <path
       style="fill:none;fill-rule:evenodd;stroke:#000000;stroke-width:1px;stroke-linecap:butt;stroke-linejoin:miter;stroke-opacity:1"
       d="m 443.2889,944.09264 5.23091,0.14945"
       id="path5843-0-6-4-6"
       inkscape:connector-curvature="0"
       sodipodi:nodetypes="cc" />
    <path
       style="fill:none;fill-rule:evenodd;stroke:#000000;stroke-width:1px;stroke-linecap:butt;stroke-linejoin:miter;stroke-opacity:1"
       d="m 449.7284,995.01088 c 14.58388,-0.63409 17.06635,0.63408 17.06635,-1.26817 0,-1.90224 -1.45243,-45.64551 0.93884,-45.94441 2.39128,-0.29891 29.29309,-0.89673 30.78764,0.29891 1.49454,1.19563 2.69018,43.32002 4.48363,44.21674 1.79346,0.89673 20.62473,0.29891 20.62473,0.29891"
       id="path5922-5-7"
       inkscape:connector-curvature="0"
       sodipodi:nodetypes="cssssc" />
    <path
       style="fill:none;fill-rule:evenodd;stroke:#e62a2a;stroke-width:1px;stroke-linecap:butt;stroke-linejoin:miter;stroke-opacity:1"
       d="m 449.11586,999.74924 2.642,-10.03963 4.01586,10.25099 3.27609,-10.14531 2.642,9.82827 4.01586,-9.93395 1.63209,10.48799"
       id="path5822-0-1"
       inkscape:connector-curvature="0"
       sodipodi:nodetypes="ccccccc" />
    <path
       style="fill:none;fill-rule:evenodd;stroke:#e62a2a;stroke-width:1px;stroke-linecap:butt;stroke-linejoin:miter;stroke-opacity:1"
       d="m 465.97874,953.95186 3.27609,-10.14532 2.642,9.82828 4.01586,-9.93396 3.27609,10.03964 3.59313,-10.35668 3.06473,10.251 3.48745,-10.251 2.53632,10.14532 4.43858,-9.93396 3.17041,10.03964"
       id="path5822-6-7"
       inkscape:connector-curvature="0"
       sodipodi:nodetypes="ccccccccccc" />
    <path
       style="fill:none;fill-rule:evenodd;stroke:#e62a2a;stroke-width:1px;stroke-linecap:butt;stroke-linejoin:miter;stroke-opacity:1"
       d="m 501.26245,997.88781 4.01586,-9.93395 3.27609,10.03963 3.59313,-10.35667 3.06473,10.25099 3.48745,-10.25099 2.53632,10.14531"
       id="path5822-9-5"
       inkscape:connector-curvature="0"
       sodipodi:nodetypes="ccccccc" />
    <rect
       style="opacity:0.18000004;fill:#000000;fill-opacity:1;fill-rule:evenodd;stroke:none;stroke-width:0.87641025px;stroke-linecap:butt;stroke-linejoin:miter;stroke-opacity:1"
       id="rect6017-0-1-7-5"
       width="77.949043"
       height="19.12359"
       x="445.68112"
       y="946.51031" />
  </g>
</svg>
